<svg version="1.1" id="Layer_1" xmlns="http://www.w3.org/2000/svg" 
     viewBox="260 220 500 500" xml:space="preserve" width="100%" height="100%">
<style>
    
    .logo-path { fill: #1a1a1a; }

   
    @media (prefers-color-scheme: dark) {
      .logo-path { fill: #ffffff; }
    }
  </style>
<path class="logo-path" 
	d="
M345.055969,381.251648 
	C345.373596,381.347961 345.719635,381.580444 346.004791,381.520966 
	C358.449158,378.926117 366.828003,385.141632 373.586487,394.476959 
	C376.757629,398.857208 380.754333,400.486938 385.959076,399.692047 
	C398.849640,397.723511 409.831024,400.506897 417.232239,412.253876 
	C417.636627,412.895721 418.418121,413.299957 419.336578,414.080292 
	C422.164307,408.311157 424.825806,402.881104 427.789886,396.833740 
	C408.565216,378.038452 389.261932,359.166351 369.557312,339.865295 
	C368.513123,338.919830 367.870300,338.403259 367.072571,337.560059 
	C366.050934,336.504333 365.184235,335.775177 364.252594,334.838562 
	C363.847992,334.386780 363.508270,334.142456 362.957458,333.551086 
	C361.822906,333.275543 360.848541,333.180786 359.984436,333.445740 
	C354.758057,335.048370 350.650146,333.989197 348.138092,330.093262 
	C345.708832,326.325653 345.972504,322.467255 348.693817,319.023590 
	C351.485382,315.490997 355.334015,314.793976 359.433350,316.322968 
	C363.637360,317.890961 365.426422,322.089661 365.059692,327.319366 
	C364.952667,328.845490 366.293365,330.473114 367.133728,332.278809 
	C368.003204,333.082458 368.709381,333.661530 369.543701,334.496399 
	C370.256042,335.223480 370.840240,335.694855 371.424438,336.166199 
	C377.403442,342.042603 383.382446,347.919006 389.783173,354.211639 
	C391.471802,355.743317 392.738708,356.858765 394.125916,358.286743 
	C396.852173,361.061218 399.458099,363.523224 402.192047,366.292053 
	C411.170349,375.662048 420.020660,384.725250 429.210358,394.135986 
	C431.892700,388.748474 434.177063,384.523010 436.063599,380.126831 
	C436.560730,378.968353 436.368774,376.781158 435.571350,375.921997 
	C431.192108,371.203674 426.526398,366.751221 421.884705,361.942322 
	C421.520081,361.463043 421.229797,361.248901 420.830811,360.720825 
	C418.922668,358.358704 417.381805,357.042603 414.068390,358.448883 
	C409.979919,360.184204 406.232513,358.299255 403.876160,354.504089 
	C401.475922,350.638123 402.125793,346.832275 405.048950,343.534271 
	C408.029938,340.170929 411.917725,339.410400 415.889526,341.284454 
	C419.855164,343.155579 422.154541,346.765167 420.973480,351.033997 
	C419.970062,354.660583 421.030121,356.594238 423.964050,358.569000 
	C425.021820,359.671753 425.939850,360.496002 426.992584,361.617676 
	C431.030334,365.887054 434.933411,369.858978 438.953033,373.949524 
	C441.750244,368.915283 444.265869,364.387848 447.194397,359.117279 
	C442.477814,354.199890 436.696808,348.325684 431.091949,342.287933 
	C424.970215,335.693481 419.011597,328.947632 412.981873,322.267761 
	C410.589996,319.571411 408.198120,316.875092 405.421387,313.770081 
	C404.466766,312.858368 403.897003,312.355316 403.198669,311.532532 
	C402.101318,310.266510 401.132568,309.320221 400.116180,308.139282 
	C399.715179,307.601471 399.361786,307.298370 398.886353,306.667633 
	C397.078583,305.912292 395.334503,304.969818 393.718140,305.153168 
	C388.843140,305.706177 384.921570,303.971588 383.004578,299.818359 
	C381.013885,295.505402 381.907593,291.653839 385.352112,288.567902 
	C388.703003,285.565857 392.564880,285.304443 396.321594,287.797394 
	C400.362091,290.478699 401.806274,294.135529 400.200806,298.979919 
	C399.819794,300.129486 400.675873,301.689026 401.078064,303.354034 
	C402.085968,304.525818 402.978699,305.403564 403.974182,306.559570 
	C404.665253,307.345154 405.253601,307.852448 405.951752,308.643921 
	C406.662933,309.457611 407.264282,309.987152 407.865631,310.516663 
	C422.655273,326.775787 437.350220,343.123657 452.378571,359.159058 
	C453.909576,360.792603 457.435699,361.007050 460.050507,361.053070 
	C462.918915,361.103516 464.387329,361.934723 465.695770,364.599640 
	C492.877655,419.959229 520.177979,475.260742 547.752563,531.144836 
	C549.708191,534.807556 551.366089,537.899170 553.023926,540.990784 
	C553.185852,541.544861 553.347839,542.098938 553.744141,543.127319 
	C554.310181,544.070801 554.641907,544.539856 554.973633,545.008972 
	C556.673462,548.667725 558.373352,552.326538 560.478088,556.856873 
	C556.577515,556.856873 553.236755,556.856873 549.080322,556.856934 
	C547.892639,557.572388 547.520569,558.287781 547.148560,559.003174 
	C547.072021,565.777283 546.862793,572.554443 547.017761,579.323242 
	C547.053833,580.899170 548.046387,582.677551 549.094543,583.956665 
	C550.972473,586.248474 552.997437,588.543396 555.366028,590.286438 
	C562.846313,595.791016 565.885315,602.939697 564.241333,612.858154 
	C564.311829,614.083069 564.381653,614.528503 564.349976,615.339111 
	C564.324463,616.453308 564.400513,617.202271 564.368896,618.274231 
	C564.316956,619.044312 564.372620,619.491516 564.322754,620.312012 
	C565.106628,622.210693 565.642761,624.237305 566.955200,625.162476 
	C570.207947,627.455322 572.431580,630.132812 571.896118,634.236633 
	C571.287231,638.903381 568.383606,641.651917 563.808777,642.503845 
	C559.632385,643.281677 555.386658,640.826477 553.833923,636.765930 
	C552.117371,632.277405 553.584473,628.798035 557.174316,625.755615 
	C558.520813,624.614502 559.152466,622.629761 560.208618,620.656616 
	C560.235596,619.526978 560.164001,618.770386 560.204956,617.645142 
	C560.241882,616.519958 560.166260,615.763428 560.215027,614.641174 
	C560.257874,613.517883 560.176208,612.760254 560.221191,611.557861 
	C561.010864,604.797729 560.734009,598.835693 554.214111,594.890320 
	C551.770264,592.214417 549.672424,589.562683 547.111694,587.480164 
	C543.655823,584.669739 542.729797,581.296753 542.925781,577.008606 
	C543.227478,570.407227 543.005127,563.781982 543.005127,556.992676 
	C539.147949,556.992676 535.737854,556.992676 532.055176,556.992676 
	C532.055176,566.114136 532.055176,575.053406 531.947266,584.359131 
	C531.910217,585.481873 531.981018,586.237976 531.952087,587.321045 
	C531.905273,588.097778 531.958252,588.547607 531.919312,589.374390 
	C532.600647,590.839844 533.139648,592.315857 534.187866,592.948975 
	C538.448486,595.522400 540.282532,599.104614 538.859070,603.874451 
	C537.576660,608.171570 534.345093,610.388916 529.866577,610.354492 
	C525.372986,610.320007 522.208191,608.033875 521.061218,603.677429 
	C519.800293,598.888245 521.815796,595.346863 525.929016,592.745972 
	C526.797058,592.197083 527.199890,590.912415 527.895874,589.552612 
	C527.914673,587.743652 527.854675,586.348816 527.870483,584.493652 
	C527.910461,575.363342 527.874634,566.693359 527.904175,557.725525 
	C527.645691,557.289246 527.321777,557.150818 526.539124,556.929932 
	C522.485596,556.847473 518.890869,556.847473 515.272034,556.847473 
	C515.103149,557.748535 514.939087,558.211304 514.941101,558.673340 
	C514.987244,568.773560 515.051697,578.873718 514.994934,589.420288 
	C514.945251,593.238586 515.013306,596.610413 514.982422,600.355591 
	C514.951172,601.492126 515.018860,602.255310 515.024048,603.464905 
	C515.026794,606.613098 515.091980,609.314880 515.077637,612.413757 
	C515.062439,613.881714 515.126709,614.952637 515.110107,616.433960 
	C515.087402,618.231262 515.145630,619.618164 515.203857,621.005127 
	C515.156372,632.692627 515.108887,644.380127 515.060303,656.935669 
	C515.134827,659.194031 515.210327,660.584473 515.188599,662.263184 
	C515.158325,663.151184 515.225281,663.750854 515.206421,664.652405 
	C515.178650,665.364807 515.236755,665.775452 515.189697,666.495239 
	C516.149292,668.185303 516.950745,669.966309 518.327820,670.872681 
	C522.573792,673.667542 524.488708,677.787231 523.074768,682.382690 
	C521.635437,687.060608 518.342773,689.553894 513.505005,689.761902 
	C508.838501,689.962524 504.747162,686.780090 503.484283,682.269836 
	C502.208130,677.712097 503.893616,672.950806 508.259705,670.831116 
	C511.734772,669.143982 511.588959,666.940552 510.424683,664.047607 
	C510.392975,664.004333 510.446106,663.911194 510.692932,663.705261 
	C510.905640,662.661072 510.871582,661.822815 510.927795,660.591187 
	C510.961487,659.129089 510.904877,658.060425 510.848236,656.991760 
	C510.933380,645.969482 511.018524,634.947144 511.109619,623.057495 
	C511.057800,620.797607 511.000031,619.405151 511.046173,617.553223 
	C511.077179,608.056458 511.004272,599.019104 510.931366,589.981689 
	C510.981049,577.657959 511.068665,565.334167 511.028839,553.010742 
	C511.024261,551.589294 510.530212,550.062195 509.893463,548.765625 
	C492.233307,512.804749 474.527985,476.866089 456.813416,440.931976 
	C456.238190,439.765137 455.487793,438.684631 454.335266,436.753052 
	C445.159821,455.324799 436.301727,473.254150 427.017700,492.045593 
	C434.373840,492.045593 440.785492,491.925415 447.186584,492.132477 
	C448.732788,492.182495 451.064575,492.890167 451.645691,494.013916 
	C458.190918,506.671143 464.464874,519.468689 470.828705,532.262939 
	C470.255493,532.529663 469.971466,532.791443 469.749481,532.746582 
	C459.053680,530.582458 451.930145,535.607178 445.026550,543.318542 
	C433.597290,556.085205 421.167603,567.956299 408.756866,580.604309 
	C407.861481,581.602539 407.368652,582.201172 406.553894,582.928833 
	C403.997742,585.550049 401.439240,587.346375 402.903259,591.885193 
	C404.492035,596.810791 399.785889,601.737915 394.530029,602.080627 
	C389.033661,602.439026 384.526642,598.166016 384.538147,592.607483 
	C384.549622,587.059143 389.158295,582.632996 394.803772,583.833252 
	C398.998322,584.724915 401.361816,583.477417 403.608673,580.096191 
	C404.620148,579.098877 405.372681,578.234741 406.125183,577.370605 
	C420.836243,563.083557 435.547333,548.796448 450.258423,534.509399 
	C449.828064,533.974976 449.397705,533.440613 448.967316,532.906189 
	C441.359406,532.716125 433.824219,531.098206 427.883331,539.090454 
	C423.175690,545.423645 416.953705,550.698303 411.021790,556.016479 
	C409.057373,557.777649 405.741272,559.380371 403.319916,559.046814 
	C393.348633,557.673096 385.951111,560.853882 379.691803,568.776245 
	C375.195190,574.467529 369.406982,579.138306 363.756714,584.667480 
	C362.180664,586.328735 361.042877,587.586853 359.522827,589.019714 
	C358.776428,590.809387 358.371307,592.416321 358.057861,594.041016 
	C357.598694,596.420898 357.758453,599.111023 356.667938,601.138306 
	C354.428589,605.301331 349.244537,606.439880 344.929565,604.296326 
	C340.575470,602.133362 338.581390,597.500732 340.066162,592.997498 
	C341.467407,588.747620 346.076172,586.303955 350.839233,586.892517 
	C352.599304,587.109985 354.467590,586.451477 356.578857,586.060669 
	C358.623291,584.148926 360.375397,582.368958 362.127533,580.588928 
	C369.548859,572.720520 376.970154,564.852112 384.288483,557.092896 
	C373.315796,557.092896 361.398621,557.092896 348.631012,557.092896 
	C356.996948,540.050354 364.923157,523.903625 372.918579,507.615906 
	C367.256683,506.169403 363.034973,507.102448 359.850098,511.653534 
	C353.848694,520.229431 345.813293,524.192017 335.196716,522.327148 
	C333.100830,521.958984 330.877167,522.318359 327.931763,522.329834 
	C326.059204,522.392517 324.967255,522.467529 323.523895,522.413696 
	C322.677887,522.330200 322.183350,522.375610 321.407288,522.303650 
	C319.985657,523.127197 318.611359,523.892334 317.748627,525.041504 
	C315.012268,528.686279 311.700592,530.748108 307.081360,529.226440 
	C302.824585,527.824097 300.652588,524.687744 300.725494,520.210388 
	C300.795166,515.928711 303.046082,513.012695 307.049255,511.656952 
	C311.633850,510.104309 315.319305,511.805908 317.620575,515.780579 
	C319.034180,518.222046 320.499420,519.196472 323.521912,518.358521 
	C324.946442,518.379089 325.987671,518.290588 327.299316,518.312012 
	C327.755035,518.362488 327.940338,518.303162 328.362244,518.381470 
	C328.756378,518.427063 328.913910,518.335022 329.518677,518.366333 
	C331.464417,518.517578 332.993164,518.362122 334.456543,518.603210 
	C343.601501,520.109680 350.971619,517.521606 356.321777,509.663177 
	C359.920563,504.377136 364.963409,502.380920 371.357758,503.379608 
	C372.717285,503.591919 375.097931,502.962738 375.615112,501.984680 
	C380.387634,492.958893 384.854004,483.771179 389.409424,474.630554 
	C389.080017,474.351990 388.750641,474.073425 388.421234,473.794861 
	C387.374298,474.621246 386.240234,475.359161 385.295715,476.289520 
	C381.500122,480.028320 377.912811,483.995850 373.929535,487.518127 
	C372.381531,488.886963 370.014404,489.955780 367.976440,490.035278 
	C359.333740,490.372406 350.674469,490.286621 341.656433,490.247131 
	C340.537659,490.199799 339.783722,490.260712 338.667358,490.210815 
	C337.552277,490.152008 336.799652,490.204010 335.682373,490.152435 
	C334.168121,490.990784 332.758850,491.744904 331.916595,492.909180 
	C329.180664,496.691162 325.670349,498.429016 321.134613,497.104248 
	C316.840515,495.850037 314.428619,492.631042 314.377991,488.246887 
	C314.324219,483.594940 316.960480,480.347748 321.409119,479.075104 
	C326.013977,477.757782 329.349884,479.775421 331.973633,483.660217 
	C332.761017,484.826019 334.621582,485.267029 336.363953,486.126770 
	C337.491608,486.142487 338.245789,486.071503 339.392151,486.107666 
	C340.855530,486.150757 341.926697,486.086700 342.997864,486.022644 
	C351.308838,486.141998 359.620880,486.364136 367.929810,486.280182 
	C369.324921,486.266113 370.952515,485.187897 372.049469,484.152863 
	C375.677612,480.729340 378.936340,476.897949 382.696289,473.637604 
	C384.529327,472.048096 387.164459,471.388794 389.424805,470.284515 
	C390.376862,469.819366 391.753967,469.530853 392.160309,468.754883 
	C394.746887,463.815369 397.116425,458.762177 399.858948,453.126770 
	C366.701111,453.126770 334.320496,453.126770 301.094482,453.116150 
	C299.177948,453.180115 298.106812,453.254669 296.672180,453.219086 
	C295.555298,453.168121 294.801880,453.227295 293.672180,453.175262 
	C291.916290,453.889740 290.081421,454.395966 289.238159,455.597931 
	C286.052307,460.139008 281.530426,462.238068 276.940857,460.625061 
	C272.415741,459.034698 269.949371,455.721069 269.781036,450.910492 
	C269.623108,446.398224 273.003235,442.129547 277.373505,441.047516 
	C282.033783,439.893677 286.227783,442.001282 289.231750,446.294037 
	C290.175446,447.642609 292.378021,448.110260 294.375214,449.074036 
	C295.498291,449.104126 296.250549,449.041229 297.395752,449.081116 
	C298.859314,449.120361 299.929962,449.056793 301.000610,448.993256 
	C318.302673,449.071930 335.604706,449.173676 352.906860,449.222168 
	C367.388031,449.262756 381.874878,449.020233 396.347351,449.380707 
	C400.721436,449.489594 403.150482,448.318756 404.470337,444.212921 
	C405.156281,442.078918 406.402374,440.124969 407.715271,437.434113 
	C397.811249,437.434113 388.688477,437.283478 379.575012,437.508942 
	C375.983429,437.597870 373.105072,437.004089 370.959015,433.893463 
	C370.027313,432.542969 368.468475,431.622620 367.549347,430.266418 
	C364.621613,425.946228 360.675323,424.328217 354.996674,425.299988 
	C354.233521,425.390045 354.075623,425.458344 353.573486,425.416595 
	C352.516266,425.391083 351.803345,425.475616 350.768585,425.422058 
	C348.712067,426.118530 346.387878,426.506683 345.353912,427.871979 
	C342.333527,431.860077 338.590454,433.224121 334.029358,431.778290 
	C329.820435,430.444092 327.529022,427.279175 327.628113,422.750488 
	C327.722870,418.419556 330.071930,415.514740 334.114777,414.329437 
	C338.829712,412.947113 342.854523,414.569183 345.079590,418.855743 
	C346.600250,421.785278 348.451874,422.015808 351.392883,421.408508 
	C352.144287,421.420624 352.574493,421.318481 353.369324,421.363586 
	C354.499969,421.416107 355.266022,421.321381 356.454773,421.375366 
	C362.261475,420.754852 366.531586,422.438599 369.671631,427.026184 
	C370.689484,428.513275 371.996521,429.990692 373.513947,430.901855 
	C375.613403,432.162445 378.001495,433.587158 380.328217,433.704132 
	C387.463684,434.062988 394.668823,433.365326 401.770050,433.974213 
	C407.663666,434.479553 410.564331,432.391663 412.908173,427.057617 
	C417.039520,417.655670 417.299805,417.928284 410.084198,410.244720 
	C406.028900,405.926392 402.268982,401.813141 395.422791,403.193909 
	C381.839478,405.933411 371.264648,401.266876 363.655640,389.707825 
	C362.936340,388.615173 361.948914,387.614899 360.882202,386.859467 
	C359.870148,386.142670 358.596741,385.390076 357.427277,385.372162 
	C352.953918,385.303711 348.476135,385.525024 343.645844,385.504822 
	C342.548737,385.464691 341.805817,385.557922 340.693146,385.500122 
	C338.512085,385.491760 336.700775,385.634399 334.544312,385.857849 
	C333.258820,387.290283 332.477325,388.795471 331.347748,389.964203 
	C328.184113,393.237396 323.786011,393.632111 320.042419,391.167297 
	C316.262207,388.678345 314.692474,383.912689 316.311890,379.841766 
	C317.930847,375.771973 322.626190,372.957489 326.725281,374.211304 
	C328.963074,374.895813 330.851776,376.721527 332.982361,378.403412 
	C334.888885,383.781372 338.862000,381.111572 342.407104,381.415161 
	C343.536346,381.445496 344.296143,381.348572 345.055969,381.251648 
M414.691101,547.194458 
	C419.237854,542.565125 423.784576,537.935730 428.992523,532.633179 
	C421.480225,532.633179 415.178223,532.555786 408.881714,532.706421 
	C407.782013,532.732666 406.142334,533.436707 405.706940,534.305969 
	C402.247284,541.213196 399.018433,548.236084 395.668304,555.330322 
	C402.264099,556.804199 407.601074,556.135864 411.400208,550.529663 
	C412.131805,549.450134 413.250519,548.632996 414.691101,547.194458 
z"/>
<path class="logo-path" 
	d="
M619.588440,497.155029 
	C633.169800,515.460083 646.753235,533.763611 660.328003,552.073547 
	C661.290039,553.371094 662.187805,554.716370 663.662476,556.819702 
	C655.806519,556.819702 648.754028,556.812378 641.701599,556.821716 
	C633.706360,556.832275 625.703979,556.667236 617.719055,556.963684 
	C614.152893,557.096069 611.981506,555.946411 609.908447,553.056458 
	C595.065796,532.364807 580.024841,511.815399 565.127441,491.162750 
	C563.372803,488.730194 561.714722,486.853149 558.317566,487.323456 
	C557.289124,487.465820 555.517212,486.737427 555.067810,485.888245 
	C548.326172,473.149323 541.749084,460.323395 534.888611,447.044495 
	C553.328979,447.044495 571.260010,447.048706 589.191040,447.043274 
	C606.834534,447.037964 617.268616,431.845398 610.889832,415.458832 
	C607.551758,406.883575 599.943420,401.982330 589.581421,401.973969 
	C566.261841,401.955170 542.940735,401.899200 519.623962,402.173798 
	C515.459534,402.222839 513.418091,400.887207 511.857971,397.192627 
	C509.728271,392.149414 507.439117,387.072937 504.453827,382.510986 
	C496.380493,370.173737 492.436127,357.006622 494.200653,342.170044 
	C494.437195,340.181061 493.053009,337.094360 491.414886,335.934296 
	C480.861633,328.460754 476.973724,318.492645 479.106232,305.069885 
	C479.043091,302.811310 478.961121,301.419128 478.979340,299.642273 
	C478.202209,297.710754 477.664246,295.752106 476.382538,294.696045 
	C472.844421,291.780701 470.803711,288.402313 472.302582,283.854950 
	C473.694855,279.631012 476.972046,277.315979 481.400604,277.450836 
	C485.818268,277.585388 488.928680,280.006195 490.037445,284.393982 
	C491.205963,289.018433 489.282959,292.334106 485.429596,294.982178 
	C484.308685,295.752472 483.974274,297.667145 483.199829,299.468536 
	C483.161652,301.267090 483.202972,302.654388 483.244324,304.041687 
	C483.198456,309.030090 482.928436,314.031616 483.220154,319.000214 
	C483.332458,320.912201 484.193909,323.506409 485.615509,324.500122 
	C496.738007,332.274902 500.467468,342.816101 498.280243,355.884979 
	C498.016876,357.458527 498.244446,359.114258 498.244446,361.190887 
	C502.153534,361.190887 505.618683,361.190887 509.833160,361.117065 
	C510.658020,360.694061 510.733551,360.344940 510.809082,359.995789 
	C510.881012,325.642609 510.952911,291.289429 511.031494,256.069122 
	C510.971466,253.812317 510.904816,252.422668 510.939270,250.624939 
	C511.590698,246.894791 510.349060,244.916107 507.286682,243.141037 
	C503.114441,240.722626 501.895508,235.732635 503.615875,231.281174 
	C505.373291,226.733658 508.759338,224.380676 513.661072,224.657303 
	C518.309814,224.919647 521.434875,227.488464 522.877991,231.850540 
	C524.352722,236.308182 522.684204,241.539001 518.392944,243.423538 
	C514.397644,245.178101 514.653687,247.833740 515.051819,251.438202 
	C515.030518,253.238419 515.080322,254.626114 515.130188,256.013794 
	C515.079163,290.367065 515.028198,324.720306 515.008301,359.830292 
	C515.360229,360.713837 515.681030,360.840668 516.001770,360.967468 
	C519.767273,360.967468 523.532776,360.967468 527.610474,360.967468 
	C527.610474,347.093719 527.471924,333.512512 527.736938,319.939209 
	C527.785095,317.473602 528.771606,314.016968 530.550476,312.778900 
	C536.499634,308.638428 536.376648,302.947601 535.997192,296.061035 
	C535.945557,293.479919 535.869446,291.764465 535.891541,289.662506 
	C535.029968,287.597260 534.442871,285.451721 533.038147,284.330383 
	C529.337341,281.376190 527.752197,277.848206 529.319214,273.402344 
	C530.792419,269.222595 534.073181,266.951630 538.537720,267.163574 
	C542.769714,267.364410 545.795288,269.726074 546.882874,273.847839 
	C548.066528,278.333862 546.499573,281.858551 542.606812,284.608276 
	C541.366821,285.484192 540.953064,287.529816 540.085266,289.463074 
	C540.048340,291.596924 540.087402,293.307922 540.126465,295.018951 
	C540.056519,296.179291 539.780640,297.370697 539.950317,298.494904 
	C540.997925,305.440155 539.168701,311.096863 533.190002,315.270813 
	C532.198303,315.963165 531.521057,317.788635 531.509705,319.097504 
	C531.390442,332.913818 531.435913,346.731567 531.435913,361.250977 
	C538.392151,361.250977 545.277588,360.427063 551.890015,361.420441 
	C566.174316,363.566284 576.075745,358.435425 584.922852,347.081512 
	C595.223022,333.862701 607.452820,322.147400 619.264038,309.349030 
	C620.776855,307.587921 621.870850,306.257446 623.270752,304.787079 
	C624.254089,303.799561 624.931580,302.951904 625.932861,301.915222 
	C626.421753,300.073669 627.041809,298.309113 626.667542,296.789368 
	C625.483643,291.982269 627.394226,288.584290 631.263000,286.267242 
	C634.889465,284.095337 638.672424,284.486176 641.853333,287.366913 
	C645.135803,290.339539 646.174927,294.114624 644.225342,298.179840 
	C642.242004,302.315582 638.789246,304.652893 634.123169,303.476288 
	C631.129456,302.721344 629.395264,303.646942 627.673889,306.004150 
	C627.200684,306.480682 626.974670,306.910553 626.463135,307.511169 
	C625.117676,308.798462 624.057678,309.914978 622.997681,311.031494 
	C607.783081,327.455963 592.568420,343.880432 576.296265,361.446503 
	C586.277100,360.489441 595.954590,365.146759 602.520447,355.097046 
	C607.143311,348.021179 613.643311,345.199066 622.041199,346.770020 
	C631.077576,348.460510 638.167664,345.496368 643.427917,337.860809 
	C644.919128,335.696228 647.352112,334.187653 648.886047,332.043945 
	C653.428467,325.695892 659.215820,322.589661 667.995239,324.266174 
	C673.411316,324.690033 677.128540,324.481049 679.851807,319.431976 
	C682.259399,314.968170 688.502258,315.107910 692.505493,318.577271 
	C696.560913,322.091858 696.963379,327.949493 693.419250,331.878204 
	C689.806335,335.883209 683.139709,336.666595 680.321594,332.350342 
	C676.936951,327.166504 672.699158,327.655426 667.953430,328.152313 
	C661.281799,326.677032 655.972839,328.645477 652.152466,334.394135 
	C651.969910,334.668732 651.689941,334.877625 651.500671,335.148712 
	C642.918579,347.441345 631.670837,353.403198 616.324036,350.675140 
	C614.269104,350.309845 611.412415,352.007690 609.558472,353.522766 
	C606.657227,355.893677 604.294861,358.924072 601.175598,362.236572 
	C622.131897,365.745758 637.190796,376.663696 647.019226,394.632202 
	C653.431885,390.745422 655.602417,381.877258 663.607239,381.038452 
	C670.686035,380.296631 677.902588,380.869629 685.877319,380.870056 
	C687.443665,380.819275 688.190979,380.760590 689.342102,380.816895 
	C692.919861,381.308777 695.104736,380.643616 696.915344,377.350677 
	C698.983459,373.589539 702.899292,372.233002 707.283203,373.748077 
	C711.572205,375.230347 713.811279,378.480133 713.726379,382.826233 
	C713.640381,387.228729 711.050171,390.278259 706.783325,391.543701 
	C702.641479,392.772034 698.794922,391.575317 696.863586,387.877014 
	C694.885437,384.088928 692.196228,384.392029 688.628174,384.817352 
	C687.155640,384.797363 686.080261,384.873718 685.004822,384.950073 
	C678.198120,384.834442 671.390442,384.622192 664.585571,384.689819 
	C663.319092,384.702393 661.876831,385.616852 660.833069,386.493134 
	C652.908936,393.145569 646.487305,399.956482 652.458130,411.732452 
	C654.545715,415.849609 653.659363,421.474701 654.156250,426.674835 
	C659.838196,426.674835 665.591553,426.674835 671.416199,426.674835 
	C673.234985,421.498077 675.599792,417.686127 682.077881,418.403625 
	C687.397095,418.992737 691.247925,422.134796 691.597595,427.637451 
	C691.924500,432.782501 687.136841,438.030487 682.190857,438.599365 
	C677.057800,439.189728 673.976440,436.575348 671.167908,432.909515 
	C670.504028,432.043030 669.258362,431.282623 668.189514,431.136139 
	C665.897583,430.821930 663.546753,430.915527 661.219482,430.887665 
	C658.746338,430.858063 656.272522,430.881073 653.920349,430.881073 
	C652.533752,436.420074 651.215576,441.685638 649.600220,447.518311 
	C649.548340,448.649475 649.793518,449.213531 650.038696,449.777527 
	C674.047180,449.840942 698.055603,449.904327 722.930969,449.978638 
	C725.191162,449.914337 726.584473,449.839142 728.367310,449.860229 
	C729.821716,449.887787 730.886475,449.819031 732.331177,449.858765 
	C734.088562,449.148987 735.598694,448.489960 736.814148,447.477264 
	C738.911316,445.729980 740.520203,443.062042 742.880005,442.034668 
	C747.697449,439.937439 753.159180,442.595215 755.359924,447.353088 
	C757.487427,451.952515 755.850586,457.353363 751.528442,459.995850 
	C746.991272,462.769745 740.898621,461.666443 737.782593,457.118958 
	C736.268799,454.909637 735.115234,452.873871 731.628296,453.909668 
	C730.501465,453.899689 729.748169,453.973175 728.625977,453.945831 
	C727.503601,453.915985 726.750000,453.987000 725.669189,453.951050 
	C724.894348,453.913177 724.446655,453.982269 723.541382,453.943115 
	C698.951355,453.829956 674.818970,453.817535 650.686584,453.841003 
	C649.398865,453.842255 647.463562,453.666138 646.928955,454.387390 
	C643.471130,459.052765 640.318726,463.944580 636.910645,468.992493 
	C646.177063,468.992493 655.000061,469.148987 663.812927,468.918823 
	C667.564819,468.820831 670.690247,469.440277 672.784180,472.748993 
	C678.290222,481.449402 686.388733,483.374390 696.254272,481.808624 
	C697.098938,481.837891 697.586304,481.750671 698.427979,481.715454 
	C699.492310,481.701599 700.202454,481.635773 701.285889,481.688446 
	C703.187256,480.923523 704.713501,480.036896 706.243774,479.157379 
	C709.104675,477.513214 711.836182,474.863159 714.861084,474.468689 
	C719.371155,473.880554 723.070923,477.703735 723.636658,482.284973 
	C724.183960,486.716248 722.243347,490.049377 718.275940,492.042969 
	C714.258423,494.061798 709.541870,492.892670 706.849854,488.938141 
	C705.336853,486.715515 704.104370,484.766449 700.628723,485.826477 
	C699.153625,485.821899 698.078003,485.900360 696.747559,485.892334 
	C696.327515,485.875763 696.162292,485.945618 695.540955,485.906219 
	C684.307739,487.720093 675.732788,484.592041 669.505371,475.223480 
	C668.574097,473.822540 665.927124,472.944733 664.046143,472.896057 
	C654.385742,472.646118 644.715820,472.693695 635.050415,472.777405 
	C633.496338,472.790833 631.777893,473.204681 630.426453,473.956543 
	C623.792175,477.647369 617.256226,481.514832 609.851013,485.803192 
	C611.715332,486.541382 613.881226,488.279358 615.719543,487.983337 
	C627.275146,486.122345 636.066650,490.116150 642.622131,499.585693 
	C642.901733,499.989655 643.392151,500.248138 643.669495,500.653076 
	C645.767578,503.716675 648.665405,504.891907 652.268677,504.215088 
	C662.819580,502.233276 670.991821,505.845490 677.022949,514.606384 
	C680.195740,519.215210 684.515930,520.823120 690.346069,519.618774 
	C692.156006,519.674805 693.561401,519.603516 695.326416,519.646057 
	C696.434753,519.706848 697.183411,519.653931 698.281128,519.709717 
	C699.615417,518.907288 700.816528,518.141785 701.547058,517.058777 
	C704.138489,513.216797 707.477295,511.376678 712.122192,512.678040 
	C716.510864,513.907654 718.813049,516.998962 718.831726,521.415100 
	C718.851562,526.108887 716.177185,529.141602 711.717407,530.413269 
	C707.290833,531.675476 703.707275,530.017090 701.650696,526.135742 
	C700.300354,523.587158 698.858704,522.714905 695.888550,523.489624 
	C694.896057,523.577087 694.250427,523.757996 693.388611,523.701050 
	C692.347351,523.534851 691.522156,523.606506 690.450806,523.526733 
	C689.462463,523.471619 688.720215,523.567993 687.978027,523.664307 
	C679.697632,525.550110 675.688782,519.407104 671.466553,514.382263 
	C667.286926,509.408173 662.654480,506.757568 656.093750,508.029419 
	C648.328857,509.534729 642.318665,506.786865 637.820312,500.375946 
	C637.068665,499.304688 635.879578,498.547394 635.079224,497.502167 
	C631.719116,493.113983 627.543213,490.801147 621.056702,492.022949 
	C618.897217,492.018585 617.557129,492.018585 615.307983,492.018585 
	C617.178101,494.262695 618.383301,495.708862 619.588440,497.155029 
z"/>








<path class="logo-path" 
	d="
M623.307678,619.309570 
	C622.525269,618.262939 621.742798,617.216309 620.707458,616.008057 
	C607.962646,600.746033 595.467651,585.648193 582.980164,570.544189 
	C576.945557,563.245178 570.925110,555.934387 564.495483,548.141602 
	C563.123352,546.575684 562.153870,545.497070 561.184448,544.418457 
	C559.091064,541.802673 556.997620,539.186890 554.495972,536.107422 
	C553.123596,534.120728 552.159485,532.597717 551.195312,531.074707 
	C553.716370,529.271057 555.207703,530.659119 556.816467,532.628784 
	C566.152405,544.059082 575.574341,555.419189 585.369202,567.294800 
	C586.821472,568.923462 587.871826,570.060303 588.922119,571.197144 
	C593.943420,577.404114 598.964661,583.611023 604.399231,590.319397 
	C607.616821,594.068848 610.421082,597.316895 613.340820,600.824768 
	C614.098694,601.769226 614.741211,602.453857 615.383728,603.138489 
	C619.585754,608.294800 623.787842,613.451172 628.362915,619.086853 
	C629.483154,620.381836 630.230469,621.197388 631.126953,622.410034 
	C632.833557,623.175720 634.435547,623.984131 635.940308,623.831848 
	C640.738586,623.346069 645.016296,625.248413 646.668701,629.223938 
	C648.458008,633.528992 647.614380,637.431580 644.054443,640.446655 
	C640.490540,643.465027 636.438660,643.711670 632.559265,641.153870 
	C628.429810,638.431152 627.639648,634.530273 628.906555,629.800964 
	C629.289307,628.372192 628.163269,626.539307 627.535400,624.586365 
	C626.608093,623.424133 625.873840,622.567078 625.052429,621.411865 
	C624.412781,620.512329 623.860229,619.910950 623.307678,619.309570 
z"/>
<path class="logo-path" 
	d="
M452.973907,623.537415 
	C452.645386,628.667542 451.909241,632.967529 457.407196,636.092041 
	C461.855347,638.619934 461.676941,645.404724 458.132599,649.291138 
	C454.562225,653.206116 448.071564,653.355652 444.284515,649.610229 
	C440.570831,645.937378 440.038788,638.934570 444.374359,636.415894 
	C449.377411,633.509521 449.124664,629.629028 448.899506,624.896240 
	C447.166962,614.692444 451.430389,607.749390 458.911346,601.601562 
	C465.693634,596.027832 471.705078,589.475586 477.731995,583.050415 
	C479.341095,581.335022 480.553101,578.519958 480.597870,576.183899 
	C480.862061,562.391602 480.728058,548.591736 480.728058,534.794373 
	C481.133545,534.574097 481.539001,534.353882 481.944489,534.133606 
	C482.826080,535.537170 484.449249,536.927612 484.474274,538.346252 
	C484.717926,552.148926 484.757904,565.956726 484.649048,579.761475 
	C484.638000,581.159729 483.545959,582.818176 482.487549,583.896362 
	C475.031189,591.492615 467.739807,599.290649 459.810760,606.368835 
	C454.566559,611.050293 451.471802,615.961121 452.973907,623.537415 
z"/>


<path class="logo-path"  
	d="
M615.417175,570.469971 
	C616.845703,571.953979 617.983704,573.251770 619.470825,574.921875 
	C620.142578,575.569275 620.465149,575.844421 620.887939,576.431702 
	C621.991211,577.833069 622.994202,578.922302 624.219666,580.336670 
	C625.523743,580.624207 626.651062,580.771179 627.679382,580.517273 
	C632.560608,579.311890 636.570374,580.760071 638.783691,584.752930 
	C641.005615,588.761292 640.346985,592.584534 637.258179,595.716309 
	C634.212280,598.804688 630.417053,599.725037 626.306702,597.730286 
	C622.281616,595.777039 620.785400,591.748047 621.521851,586.785217 
	C621.751160,585.239624 620.610168,583.490784 619.986328,581.561462 
	C619.295654,580.782837 618.715088,580.277710 618.041382,579.502808 
	C617.155518,578.430969 616.362732,577.628906 615.408569,576.518555 
	C613.187683,574.081726 611.128235,571.953125 609.068726,569.824585 
	C595.129883,554.693176 581.204712,539.549133 567.234070,524.447144 
	C565.592163,522.672302 563.626404,521.131409 567.344727,519.089661 
	C575.557312,527.847046 583.815674,536.653320 592.513184,545.918579 
	C595.580322,549.077881 598.208252,551.778198 600.836243,554.478455 
	C601.219360,554.980957 601.602478,555.483459 602.364929,556.400269 
	C604.809753,558.927063 606.875305,561.039673 608.940796,563.152222 
	C611.002747,565.529419 613.064697,567.906555 615.417175,570.469971 
z"/>

<path class="logo-path" 
	d="
M498.741364,587.599976 
	C498.337677,592.979309 497.899567,597.362732 503.255524,600.819519 
	C507.736511,603.711609 507.121307,610.136108 503.149109,613.904236 
	C499.190887,617.659119 492.885254,617.498657 489.306030,613.552002 
	C485.749207,609.629944 485.678558,603.184509 490.148285,600.377197 
	C494.142120,597.868774 494.663574,594.802673 494.440125,590.110535 
	C494.346527,588.549500 494.270844,587.784058 494.195190,587.018616 
	C494.195190,571.887268 494.195190,556.755920 494.195190,541.511536 
	C498.407593,540.561707 498.388611,543.048645 498.399841,545.675232 
	C498.458771,559.494995 498.563019,573.314514 498.741364,587.599976 
z"/>


</svg>